<?xml version='1.0' encoding='utf-8'?>
<svg xmlns="http://www.w3.org/2000/svg" enable-background="new 0 0 1920 1280" version="1.1" viewBox="0 0 1920 1280">
<g clip-rule="evenodd" fill-rule="evenodd">
	<path d="m1080 821.01c-51.914 54.038-92.842 228.23-95.02 286.58-0.507-6.84-12.938-19.178-11.592-25.212 5.982-42.922 43.513-196.04 82.495-243.15 2.42-4.265 5.172-8.28 7.781-12.3"/>
	<path d="m1063.6 826.92c32.603-27.463 41.396-50.113 38.39-87.068-3.13-40.227 13.134-77.856 47.154-112.48 12.554 55.56-31.035 101.98-48.594 159.19 22.909-19.523 43.15-34.091 63.558-48.688 8.584-6.096 16.328-13.773 24.689-20.486-0.167 0.031-0.33 0.062-0.504 0.093 6.351-1.807 13.08-2.481 19.05-5.396 17.131-8.367 34.44-16.865 52.052-24.957 2.646-1.219 4.206-5.085 6.294-7.729-0.111 3e-3 -0.224 5e-3 -0.335 7e-3 36.4-1.596 68.811-27.396 71.08-57.808 2.577-39.674 28.674-72.1 76.358-95.312 2.468 52.639-54.227 82.161-84.081 123.76 1.397 1.198 2.795 2.396 4.153 3.628 25.779-12.982 52.688-24.385 80.062-35.245 3.991-1.574 5.716-6.877 8.553-10.422-0.085-0.049-0.169-0.096-0.269-0.144 6.804-0.539 15.564 0.899 20.213-1.701 31.267-17.499 63.626-33.709 97.143-48.483 8.211-3.64 13.868-9.865 20.863-14.759-0.031 0.027-0.069 0.039-0.106 0.059 9.38-5.003 19.938-9.202 28.298-14.686 11.115-7.256 19.253-16.457 31.533-22.668 13.9-6.951 9.168-14.184 1.308-22.159-19.48-19.646-21.873-28.461-3.321-50.954 5.126 9.673 12.15 19.33 14.749 29.067 2.611 9.873 0.923 19.814 1.197 29.743 2.15 0.544 4.319 1.111 6.462 1.656 13.313-15.222 27.271-30.039 41.911-44.359-0.111 2e-3 -0.223 3e-3 -0.351-1e-3 9.452-15.745 21.213-30.711 28.789-46.651 2.425-5.056-5.532-13.996-12.436-20.183-20.749-18.577-24.153-35.949-10.979-52.652 49.205 41.512 39.645 77.244 14.182 113.27 22.53-7.331 38.496-21.07 74.575-14.401-12.557 16.485-35.677 23.032-66.199 26.076-10.719 1.051-21.228 5.071-27.274 10.021-14.207 11.565-25.295 24.745-36.959 37.737 0.054-0.102 0.096-0.185 0.142-0.268-14.593 8.677-28.743 17.744-42.475 27.198 32.581-11.046 61.874-27.771 108.25-15.469-11.403 15.645-59.97 29.178-90.737 25.74-21.074-2.611-35.975 1.869-49.142 11.11-9.852 6.923-22.218 12.376-32.402 19.312-4.622 3.158-7.456 7.525-11.045 11.387 0.052-0.124 0.111-0.259 0.163-0.383-32.761 12.548-63.363 27.717-94.169 42.602-17.117 8.254-36.596 13.746-54.392 21.409-4.119 1.778-8.078 3.884-11.756 7.146 41.683-9.807 85.27-16.362 121.28 9.749-30.282 15.938-80.931 22.848-108.87 9.206-25.601-12.818-48.638-6.671-72.731 4.847-6.962 3.325-13.763 6.94-22.967 11.869 24.251 0.426 46.577 0.686 68.346 3.633 22.488 3.073 39.865 12.983 48.822 33.032-47.688 6.517-84.179 3.728-111.92-24.998-3.485-3.665-12.279-6.794-17.125-5.012-21.661 8.01-42.259 18.709-62.238 31.973 42.307-4.056 89.199-12.202 114.82 25.682-33.633 14.793-81.65 12.02-99.204-5.902-12.433-12.945-26.621-16.871-45.504-5.234-23.091 14.333-45.083 30.195-66.155 47.105 0.297 1.587 0.6 3.142 0.896 4.71 10.571-1.691 21.233-3.377 31.92-4.434 20.996-2.046 41.861-1.261 58.402 10.517 7.096 5.041 12.477 12.374 20.149 20.23-54.412 22.826-86.242 0.069-117.96-26.581-10.239 10.346-17.869 18.469-27.261 28.983"/>
	<path d="m1188.8 717.39c2.249-22.063 3.563-44.032 8.658-65.901 6.73-28.65 24.21-54.313 53.916-75.294 7.506 15.731 3.178 31.962-5.014 46.489-13.182 23.245-29.078 46.119-42.6 69.986-4.739 8.377-10.388 16.453-15.434 24.81-0.03 3e-3 0.474-0.09 0.474-0.09z"/>
	<path d="m1421.5 608.02c5.233-13.512 11.221-26.828 16.511-40.16 11.727-29.662 39.135-51.237 80.055-66.096 5.714 18.246-4.375 33.146-18.047 44.981-23.42 20.133-49.996 39.132-73.282 60.353-0.886 0.801-3.528 0.564-5.439 0.805-0.067-0.026 0.201 0.109 0.202 0.117z"/>
	<path d="m1527.4 580.86c35.479-14.332 73.285-26.602 119.24-19.763 12.474 1.869 24.591 6.297 38.981 10.403-37.254 21.453-104.69 27.395-158.07 8.986 0.016-1e-3 -0.148 0.374-0.148 0.374z"/>
	<path d="m1265.7 679.4c4.764-24.419 8.08-48.961 17.061-72.682 8.725-22.891 28.529-41.85 56.244-56.984 5.456 28.351-10.358 51.375-28.419 74.352-14.557 18.437-30.909 36.302-45.221 55.321 0.111-2e-3 0.223-4e-3 0.335-7e-3z"/>
	<path d="m1441.5 624.01c49.709-8.262 104.62-18.081 149.52 17.883-57.726 15.575-103.87 6.909-149.52-17.883z"/>
	<path d="m1644.8 501.85c30.638-14.006 61.493-28.423 107.6-24.339 6.549 0.595 13.212 1.89 22.454 3.363-4.446 12.888-23.22 15.473-37.792 17.349-20.708 2.563-44.796 0.709-66.989 1.73-8.416 0.359-16.758 0.872-25.093 1.528-0.041 0.102-0.182 0.369-0.182 0.369z"/>
	<path d="m1559.5 542.93c-23.745-20.339-21.169-42.136-9.795-63.657 3.442-6.517 9.928-12.257 16.204-19.395 15.604 12.197 14.77 24.368 11.635 35.522-3.791 13.225-11.778 25.88-17.181 39.031-1.094 2.72-0.736 5.723-1.024 8.577 0.054-0.019 0.171-0.062 0.161-0.078z"/>
	<path d="m1741 261.37c23.91 25.148 6.668 41.85-5.529 60.675-27.328-17.5-23.755-52.521 5.529-60.675z"/>
	<path d="m1681.5 448.63c-36.873-21.767-48.797-42.732-33.114-65.855 25.049 9.602 25.379 23.175 28.23 35.822 2.248 10.001 2.846 19.963 4.401 29.996 0.133 0.036 0.483 0.037 0.483 0.037z"/>
	<path d="m1789.7 363.96c-0.784 19.763-24.918 33.689-57.653 35.619-0.688-18.494 27.052-36.554 57.653-35.619z"/>
</g>
<g clip-rule="evenodd" fill-rule="evenodd">
	<path d="m1042.8 822.9c21.715 34.172-28.584 135.74-91.29 175.58-62.725 39.844-114.11 2.888-135.81-31.285-21.712-34.18-12.409-101.72 50.304-141.56s155.08-36.908 176.8-2.736z"/>
	<path d="m863.97 1010.2c-19.098-20.537 2.335-96.064 40.031-131.11 37.696-35.056 77.353-16.362 96.46 4.176 19.102 20.555 21.277 67.724-16.414 102.78-37.689 35.04-100.98 44.696-120.08 24.157z"/>
	<path d="m898.12 802.69c-34.188 30.076-94.912 16.968-135.63-29.295-40.711-46.279-132.28-183.62-98.086-213.7 34.2-30.083 178.21 61.289 221.92 104.74 31.567 31.373 45.992 108.16 11.796 138.26z"/>
	<path d="m898.45 797.61c-22.356 39.692-90.505-66.182-124.42-117.65-206.42-313.18-327.63-380.13-366.68-423.43 87.38 5.584 426.01 262.46 479.31 402.82 22.571 59.436 44.791 79.672 11.8 138.26z"/>
	<path d="m869.88 829.45c-34.196 30.092-47.253-32.311-87.968-78.582-40.715-46.279-179.94-134.33-145.75-164.42s178.21 61.281 221.91 104.74c31.571 31.371 46.004 108.16 11.808 138.26z"/>
	<path d="m858.4 897.07c-34.188 30.092-20.721-35.325-61.432-81.597-40.715-46.263-194.08-139.75-172.28-161.41 32.307-32.089 176.62 68.623 220.34 112.08 31.562 31.372 47.579 100.85 13.375 130.93z"/>
	<path d="m17.081 646.76c16.585-4.018 41.455-3.699 81.115 7.922 111.52 32.678 287.32 113.67 317.67 121.59 112.91 29.432 392.62 158.83 359.8 196.6-56.544 65.084-221.21 18.168-316.72-48.855-86.409-60.629-354.45-224.17-441.86-277.26z"/>
	<path d="m720.31 920.38c-10.401 36.925-66.396 53.446-125.08 36.909-58.684-16.529-118.35-53.256-107.95-90.172s108.1-10.642 166.78 5.887c58.684 16.53 76.649 10.459 66.249 47.376z"/>
	<path d="m795.3 897.52c-10.4 36.924-66.4 53.445-125.08 36.908-58.688-16.529-129.45-47.639-119.05-84.564 10.396-36.916 119.2-16.25 177.88 0.279s76.646 10.468 66.249 47.377z"/>
	<path d="m769.94 977.28c-114.4 55.028-300.06-263.75-426.65-373.89-72.644-63.206-153.71-117.5-247.96-158.72 59.014-45.197 242.88 78.82 251.22 59.96-21.282-34.013-67.402-174.33-77.946-232.51 16.983 4.646 107.38 181.11 244.34 321.39 82.559 84.572 198.14 135.33 279.2 185.83 45.13 28.127 52.961 65.656 46.943 116.66-4.803 40.704-51.503 72.784-69.143 81.279z"/>
	<path d="m959.87 975.8c-18.068 48.395-95.807 87.085-190.95 80.992-95.143-6.094-302.39-110.52-299.14-161.33 3.257-50.797 217.01-30.061 312.16-23.959 95.147 6.102 195.73 56.604 177.93 104.3z"/>
	<path d="m1079.4 824.03c-6.699 3.652-8.83 7.732-23.004 19.266-9.164 7.462-19.33 11.9-22.178 6.301-2.307-4.566-2.656-27.379 0.469-28.43 9.092-3.063 45.109-3.405 44.713 2.863z"/>
	<path d="m1046.5 848.74c-1.201-3.754 5.082-3.771 10.922-7.699 6.682-4.535 21.938-10.851 23.848-6.125-9.195 4.247-14.367 16.004-21.049 18.16-6.698 2.138-12.52-0.59-13.721-4.336z"/>
</g>
</svg>